<svg id="Layer_1" data-name="Layer 1" xmlns="http://www.w3.org/2000/svg" width="190" height="54" viewBox="0 0 190 54"><defs><style>.cls-1{fill:#00aab8;}.cls-2{fill:#004c44;}.cls-3{fill:#e42624;}</style></defs><title>CREDIBOM_LogoWeb_10012017</title><path class="cls-1" d="M2,28.1H2A14.5,14.5,0,0,1,16.9,13.3c5.4,0,8.6,1.8,11.2,4.4l-4,4.6c-2.2-2-4.4-3.3-7.3-3.3-4.8,0-8.2,4-8.2,8.9h0c0,4.9,3.3,9,8.2,9,3.3,0,5.3-1.3,7.5-3.4l4,4.1a14.7,14.7,0,0,1-11.7,5.1A14.4,14.4,0,0,1,2,28.1"/><path class="cls-1" d="M30.6,20.4h6.2v4.4c1.3-3,3.3-4.9,7-4.8v6.5h-.3c-4.1,0-6.7,2.5-6.7,7.7v8.1H30.6Z"/><path class="cls-1" d="M44,31.5h0C44,25.2,48.4,20,54.8,20s10.6,5.7,10.6,11.9a9.2,9.2,0,0,1-.1,1.6H50.1a5.1,5.1,0,0,0,5.4,4.3,7.8,7.8,0,0,0,5.3-2.2l3.5,3.1a11,11,0,0,1-8.9,4.1C48.8,42.8,44,38.2,44,31.5m15.4-1.9c-.4-2.7-2-4.6-4.6-4.6s-4.3,1.8-4.8,4.6Z"/><path class="cls-1" d="M67,31.4h0C67,24,71.8,20,76.9,20a8.2,8.2,0,0,1,6.8,3.3V12.5h6.2V42.3H83.7V39.1a7.8,7.8,0,0,1-6.8,3.6c-5.1,0-9.9-4-9.9-11.3m16.8,0h0c0-3.6-2.4-6-5.3-6s-5.3,2.3-5.3,6h0c0,3.6,2.4,6,5.3,6s5.3-2.4,5.3-6"/><path class="cls-1" d="M109.9,39.4v2.9h-6.2V12.5h6.2V23.6a7.9,7.9,0,0,1,6.8-3.6c5.1,0,9.9,4,9.9,11.3h0c0,7.3-4.7,11.3-9.9,11.3a8.3,8.3,0,0,1-6.8-3.3m10.5-8h0c0-3.6-2.4-6-5.3-6s-5.3,2.4-5.3,6h0c0,3.6,2.4,6,5.3,6s5.3-2.3,5.3-6"/><path class="cls-1" d="M153.7,20.4h6.2v3.1a7.8,7.8,0,0,1,6.4-3.5,6.6,6.6,0,0,1,6.2,3.5,8.8,8.8,0,0,1,7.1-3.5c4.6,0,7.4,2.8,7.4,8.1V42.3h-6.2V30.1c0-2.9-1.3-4.5-3.6-4.5s-3.8,1.6-3.8,4.5V42.3h-6.2V30.1c0-2.9-1.3-4.5-3.6-4.5s-3.7,1.6-3.7,4.5V42.3h-6.2Z"/><path class="cls-1" d="M93.7,20.4h6.2V42.3H93.7Zm6.5-5A3.4,3.4,0,1,1,96.8,12a3.4,3.4,0,0,1,3.4,3.4"/><rect class="cls-2" x="129.7" y="39.6" width="20.2" height="2.65"/><path class="cls-1" d="M139.5,14.6a10.7,10.7,0,0,0-11,10.6h0a10.5,10.5,0,0,0,10.9,10.5c6.3,0,11-4.7,11-10.5h0a10.6,10.6,0,0,0-.5-3.1l-5.2,2.8v.4h0c0,3-1.9,5.5-5.2,5.5a5.3,5.3,0,0,1-5.3-5.5h0c0-3,1.9-5.5,5.2-5.5a4.6,4.6,0,0,1,2.1.4l5.3-2.8A11.4,11.4,0,0,0,139.5,14.6Z"/><path class="cls-3" d="M137.6,21.6l1.1,2.6a1.8,1.8,0,0,0,2.6.9l9.9-5.3V14.9l-4.4,2.3L141.5,20l-1.1.6C138.6,21.4,138.1,21.7,137.6,21.6Z"/></svg>